<?xml version="1.0" encoding="UTF-8"?>
<svg id="Layer_1" data-name="Layer 1" xmlns="http://www.w3.org/2000/svg" xmlns:xlink="http://www.w3.org/1999/xlink" viewBox="0 0 314.49 314.51">
  <defs>
    <style>
      .cls-1 {
        fill: url(#linear-gradient);
      }
    </style>
    <linearGradient id="linear-gradient" x1="0" y1="157.25" x2="314.49" y2="157.25" gradientUnits="userSpaceOnUse">
      <stop offset="0" stop-color="#9033ff"/>
      <stop offset=".05" stop-color="#8939fd"/>
      <stop offset=".11" stop-color="#764cf9"/>
      <stop offset=".19" stop-color="#576af3"/>
      <stop offset=".28" stop-color="#2d94eb"/>
      <stop offset=".36" stop-color="#00c1e2"/>
      <stop offset=".37" stop-color="#03b8da"/>
      <stop offset=".48" stop-color="#22749b"/>
      <stop offset=".57" stop-color="#39436d"/>
      <stop offset=".64" stop-color="#472450"/>
      <stop offset=".68" stop-color="#4d1946"/>
      <stop offset=".9" stop-color="#c8586a"/>
      <stop offset="1" stop-color="#ff757b"/>
    </linearGradient>
  </defs>
  <g>
    <path d="M50.55,314.51c-.15,0-.3,0-.45,0-8.53-.12-16.5-3.53-22.46-9.62l-18.33-18.33C3.27,280.45-.04,272.34,0,263.74s3.44-16.67,9.55-22.73L241.24,9.33C247.3,3.32,255.34.02,263.88.02c.06,0,.11,0,.17,0,8.6.04,16.68,3.44,22.73,9.55l18.08,18.08c.2.19.39.39.58.59,5.93,6.09,9.16,14.19,9.04,22.75-.12,8.53-3.53,16.5-9.62,22.46l-231.42,231.42c-.17.17-.34.34-.52.51-6.06,5.9-13.98,9.11-22.38,9.11ZM251.66,20.12l10.61,10.61L30.71,262.28c-.59.59-.71,1.2-.71,1.61,0,.42.11,1.03.64,1.56.02.02.05.05.07.07l18.21,18.21s.1.1.14.15c.49.51,1.06.62,1.45.63.39,0,.96-.09,1.47-.59.05-.06.13-.13.18-.19L283.72,52.18s.1-.1.15-.14c.51-.49.62-1.06.62-1.45,0-.39-.09-.96-.59-1.47-.06-.05-.13-.13-.18-.18l-18.21-18.21c-.59-.59-1.2-.71-1.61-.71-.38.02-1.03.11-1.56.64l-10.68-10.54Z"/>
    <path d="M228.33,143.79c-3.84,0-7.68-1.46-10.61-4.39l-42.67-42.67c-5.86-5.86-5.86-15.35,0-21.21,5.86-5.86,15.36-5.86,21.21,0l42.67,42.67c5.86,5.86,5.86,15.35,0,21.21-2.93,2.93-6.77,4.39-10.61,4.39Z"/>
    <path d="M57.65,143.79c-8.28,0-15-6.72-15-15v-56.89c0-8.28,6.72-15,15-15s15,6.72,15,15v56.89c0,8.28-6.72,15-15,15Z"/>
    <path d="M256.78,257.57c-8.28,0-15-6.72-15-15v-56.89c0-8.28,6.72-15,15-15s15,6.72,15,15v56.89c0,8.28-6.72,15-15,15Z"/>
    <path d="M128.77,58.45c-8.28,0-15-6.72-15-15V15C113.77,6.72,120.48,0,128.77,0s15,6.72,15,15v28.45c0,8.28-6.72,15-15,15Z"/>
    <path d="M86.1,115.34H29.21c-8.28,0-15-6.72-15-15s6.72-15,15-15h56.89c8.28,0,15,6.72,15,15s-6.72,15-15,15Z"/>
    <path d="M285.22,229.12h-56.89c-8.28,0-15-6.72-15-15s6.72-15,15-15h56.89c8.28,0,15,6.72,15,15s-6.72,15-15,15Z"/>
    <path d="M142.99,44.22h-28.45c-8.28,0-15-6.72-15-15s6.72-15,15-15h28.45c8.28,0,15,6.72,15,15s-6.72,15-15,15Z"/>
  </g>
  <g>
    <path class="cls-1" d="M50.55,314.51c-.15,0-.3,0-.45,0-8.53-.12-16.5-3.53-22.46-9.62l-18.33-18.33C3.27,280.45-.04,272.34,0,263.74s3.44-16.67,9.55-22.73L241.24,9.33C247.3,3.32,255.34.02,263.88.02c.06,0,.11,0,.17,0,8.6.04,16.68,3.44,22.73,9.55l18.08,18.08c.2.19.39.39.58.59,5.93,6.09,9.16,14.19,9.04,22.75-.12,8.53-3.53,16.5-9.62,22.46l-231.42,231.42c-.17.17-.34.34-.52.51-6.06,5.9-13.98,9.11-22.38,9.11ZM251.66,20.12l10.61,10.61L30.71,262.28c-.59.59-.71,1.2-.71,1.61,0,.42.11,1.03.64,1.56.02.02.05.05.07.07l18.21,18.21s.1.1.14.15c.49.51,1.06.62,1.45.63.39,0,.96-.09,1.47-.59.05-.06.13-.13.18-.19L283.72,52.18s.1-.1.15-.14c.51-.49.62-1.06.62-1.45,0-.39-.09-.96-.59-1.47-.06-.05-.13-.13-.18-.18l-18.21-18.21c-.59-.59-1.2-.71-1.61-.71-.38.02-1.03.11-1.56.64l-10.68-10.54Z"/>
    <path class="cls-1" d="M228.33,143.79c-3.84,0-7.68-1.46-10.61-4.39l-42.67-42.67c-5.86-5.86-5.86-15.35,0-21.21,5.86-5.86,15.36-5.86,21.21,0l42.67,42.67c5.86,5.86,5.86,15.35,0,21.21-2.93,2.93-6.77,4.39-10.61,4.39Z"/>
    <path class="cls-1" d="M57.65,143.79c-8.28,0-15-6.72-15-15v-56.89c0-8.28,6.72-15,15-15s15,6.72,15,15v56.89c0,8.28-6.72,15-15,15Z"/>
    <path class="cls-1" d="M256.78,257.57c-8.28,0-15-6.72-15-15v-56.89c0-8.28,6.72-15,15-15s15,6.72,15,15v56.89c0,8.28-6.72,15-15,15Z"/>
    <path class="cls-1" d="M128.77,58.45c-8.28,0-15-6.72-15-15V15C113.77,6.72,120.48,0,128.77,0s15,6.72,15,15v28.45c0,8.28-6.72,15-15,15Z"/>
    <path class="cls-1" d="M86.1,115.34H29.21c-8.28,0-15-6.72-15-15s6.72-15,15-15h56.89c8.28,0,15,6.72,15,15s-6.72,15-15,15Z"/>
    <path class="cls-1" d="M285.22,229.12h-56.89c-8.28,0-15-6.72-15-15s6.72-15,15-15h56.89c8.28,0,15,6.72,15,15s-6.72,15-15,15Z"/>
    <path class="cls-1" d="M142.99,44.22h-28.45c-8.28,0-15-6.72-15-15s6.72-15,15-15h28.45c8.28,0,15,6.72,15,15s-6.72,15-15,15Z"/>
  </g>
</svg>